<svg xmlns="http://www.w3.org/2000/svg" viewBox="0 0 169.66 201.76"><defs><style>.a{fill:#383634;}.b{fill:none;stroke:#383634;stroke-linecap:round;stroke-linejoin:round;stroke-width:9px;}</style></defs><path class="a" d="M74.55,49.4h0m126.37,6.85,3,161.51H71.47l3-161.51h126.5m6.73-9H67.7a2.15,2.15,0,0,0-2.15,2.15L62.34,224.61a2.15,2.15,0,0,0,2.15,2.15H210.85a2.15,2.15,0,0,0,2.15-2.15L209.79,49.4a2.14,2.14,0,0,0-2.14-2.15Z" transform="translate(-43.34 -25)"/><path class="a" d="M94,217.76H52.47l3-161.51H94V48a5.39,5.39,0,0,1,0-.71H48.7a2.15,2.15,0,0,0-2.15,2.15L43.34,224.61a2.15,2.15,0,0,0,2.15,2.15H94Z" transform="translate(-43.34 -25)"/><polyline class="a" points="12.21 24.4 12.21 24.4 12.21 24.4"/><path class="b" d="M174.5,72.25V48.75A19.25,19.25,0,0,0,155.25,29.5h-32.5A19.25,19.25,0,0,0,103.5,48.75v23.5" transform="translate(-43.34 -25)"/><path class="b" d="M155.5,48.75A19.25,19.25,0,0,0,136.25,29.5h-32.5A19.25,19.25,0,0,0,84.5,48.75" transform="translate(-43.34 -25)"/></svg>