<svg xmlns="http://www.w3.org/2000/svg" viewBox="0 0 456.74 114.91"><defs><style>.a{font-size:47px;font-family:SegoeScript, Segoe Script;}.a,.d{fill:#383634;}.b{fill:#000;}.c{fill:#43b02a;}.e{fill:none;stroke:#383634;stroke-miterlimit:10;stroke-width:5px;}.f{fill:#ff8200;fill-rule:evenodd;}</style></defs><text class="a" transform="translate(111.44 76.46)">Spartan<tspan class="b" x="193.74" y="0"> </tspan><tspan class="c" x="212.53" y="0">Fresh</tspan></text><path class="d" d="M108.75,40a7.2,7.2,0,0,0-5.67-2.72H83L72.11,12.39a3,3,0,1,0-5.59,2.44l9.82,22.49H40l9.82-22.49a3,3,0,1,0-5.59-2.44L33.33,37.32H13.25A7.2,7.2,0,0,0,7.58,40a7,7,0,0,0-1.37,6L16.93,92.86a7.16,7.16,0,0,0,7,5.55H92.36a7.16,7.16,0,0,0,7-5.55L110.12,46a7,7,0,0,0-1.37-6ZM92.36,92.3H24a1.1,1.1,0,0,1-1.08-.8L12.17,44.66a.89.89,0,0,1,.19-.81,1.08,1.08,0,0,1,.89-.42H30.66l-.8,1.83a3,3,0,0,0,1.58,4,2.91,2.91,0,0,0,1.22.26,3.07,3.07,0,0,0,2.8-1.83l1.87-4.28H79l1.87,4.28a3.05,3.05,0,0,0,2.8,1.83,2.91,2.91,0,0,0,1.22-.26,3,3,0,0,0,1.58-4l-.8-1.83h17.41a1.08,1.08,0,0,1,.89.42.89.89,0,0,1,.19.81L93.44,91.5a1.1,1.1,0,0,1-1.08.8Z" transform="translate(-6.03 -10.55)"/><circle class="e" cx="72.85" cy="102.81" r="9.6"/><circle class="e" cx="30.96" cy="102.81" r="9.6"/><path class="f" d="M66.83,60c2.49,2.49,4.48,6.54,3.35,9C67.1,75.46,44,86.8,42.06,84.8s9.39-25,15.81-28.12C60.25,55.54,64.35,57.54,66.83,60Z" transform="translate(-6.03 -10.55)"/><circle class="c" cx="64.47" cy="45.8" r="3.99"/></svg>