<svg xmlns="http://www.w3.org/2000/svg" viewBox="0 0 456.74 114.91"><defs><style>.a{fill:#383634;}.b{fill:#43b02a;}.c{fill:none;stroke:#383634;stroke-miterlimit:10;stroke-width:5px;}.d{fill:#ff8200;fill-rule:evenodd;}</style></defs><path class="a" d="M144.79,57.86a5.83,5.83,0,0,1-.07.74,7.38,7.38,0,0,1-.2.88,5.69,5.69,0,0,1-.3.85,2.27,2.27,0,0,1-.37.63,2.45,2.45,0,0,1-2,.67,6.76,6.76,0,0,0-.43-2.6,1.81,1.81,0,0,0-.75-.81,5.86,5.86,0,0,0-1.21-.56,7.12,7.12,0,0,0-1.34-.34,7.67,7.67,0,0,0-1.16-.1c-.73,0-1.44,0-2.12.05a18.56,18.56,0,0,0-2,.19,18.27,18.27,0,0,0-2,.42,16.31,16.31,0,0,0-2.08.69c-.55.23-1.12.51-1.72.82a10.38,10.38,0,0,0-1.65,1.07,7.68,7.68,0,0,0-1.31,1.3,3.41,3.41,0,0,0-.69,1.57,2.79,2.79,0,0,0,.39,1.46A7.18,7.18,0,0,0,125,66.4a9.29,9.29,0,0,0,1.72,1.42,6.91,6.91,0,0,0,2,.94l.85.3c.44.16.92.32,1.43.48l1.42.47.84.27a23.42,23.42,0,0,1,7.7,3.15,5.38,5.38,0,0,1,2.51,4.47,4.13,4.13,0,0,1-.37,1.69,9.42,9.42,0,0,1-1,1.6A11.17,11.17,0,0,1,141,82.6a12.36,12.36,0,0,1-1.24,1.08c-.44.35-.94.72-1.51,1.09s-1.17.74-1.81,1.09-1.31.68-2,1-1.39.57-2.09.8-1.41.44-2.17.63-1.5.36-2.25.5-1.45.24-2.13.33a15.8,15.8,0,0,1-1.82.12,8.5,8.5,0,0,1-1.55-.17,11.93,11.93,0,0,1-1.87-.48,7.26,7.26,0,0,1-1.58-.73c-.43-.29-.65-.59-.65-.91a4.47,4.47,0,0,1,.08-.73,4.84,4.84,0,0,1,.23-.85,3,3,0,0,1,.34-.7.56.56,0,0,1,.45-.29,3.24,3.24,0,0,1,1,.15l1.17.33a14.11,14.11,0,0,0,1.61.33,14.45,14.45,0,0,0,2.26.15,15.13,15.13,0,0,0,2.86-.28,22.53,22.53,0,0,0,2.9-.77,24.51,24.51,0,0,0,2.72-1.1,21.76,21.76,0,0,0,2.33-1.29c.32-.21.68-.46,1.07-.74a10.89,10.89,0,0,0,1.09-.93,6.11,6.11,0,0,0,.85-1.08,2.3,2.3,0,0,0,.34-1.2c0-.58-.43-1.14-1.28-1.67a12.41,12.41,0,0,0-2.59-1.22c-.88-.29-1.66-.52-2.35-.69-.84-.21-1.78-.49-2.83-.85s-2.2-.77-3.46-1.26a13.94,13.94,0,0,1-5.28-3.49,7.81,7.81,0,0,1-2.15-5.53,4.75,4.75,0,0,1,.93-2.91,10.93,10.93,0,0,1,2.62-2.59,20.35,20.35,0,0,1,3.78-2.13,24.88,24.88,0,0,1,4.37-1.45c.31-.07.68-.13,1.11-.21s.89-.14,1.36-.2.92-.1,1.35-.13.81-.06,1.12-.06.83,0,1.38.08,1.14.13,1.73.22a16.42,16.42,0,0,1,1.67.34,5.81,5.81,0,0,1,3.11,2A2.83,2.83,0,0,1,144.79,57.86Z" transform="translate(-6.03 -10.55)"/><path class="a" d="M186.05,69.38a4,4,0,0,1-.48,1.7,2,2,0,0,1-.4.54c-.2.19-.39.38-.6.56s-.41.35-.61.5a4.91,4.91,0,0,0-.43.33,22.16,22.16,0,0,1-2,1.39c-.79.51-1.68,1-2.65,1.63s-2,1.15-3.08,1.74-2.18,1.17-3.26,1.73-2.14,1.11-3.17,1.61-2,1-2.8,1.33a16,16,0,0,0-1.74.93c-.55.35-1.09.67-1.62,1a12.08,12.08,0,0,1-1.6.74,4.77,4.77,0,0,1-1.69.3,3.88,3.88,0,0,1-1-.13,2.52,2.52,0,0,1-.88-.4,2,2,0,0,1-.87-1.72,1,1,0,0,1,.22-.6A2.27,2.27,0,0,1,158,82a6,6,0,0,1,.76-.4c.27-.12.54-.23.8-.32s.6-.22,1-.34l1.14-.34q.57-.17,1.11-.36a9.14,9.14,0,0,0,.93-.36,6.49,6.49,0,0,0,1.38-1,9.91,9.91,0,0,0,1.19-1.31,17.75,17.75,0,0,0,1-1.48c.32-.51.62-1,.89-1.48a9.06,9.06,0,0,0,.53-1.08c.17-.39.32-.79.45-1.19a8,8,0,0,0,.29-1.14,4.85,4.85,0,0,0,.11-.9,4.19,4.19,0,0,0-.69-2.53,2.08,2.08,0,0,0-1.72-.94,3.28,3.28,0,0,0-1.48.43,12.56,12.56,0,0,0-1.68,1,16.41,16.41,0,0,0-1.56,1.25c-.48.43-.87.81-1.16,1.11a23,23,0,0,0-2,2.45c-.62.88-1.21,1.78-1.76,2.7s-1.07,1.86-1.56,2.79-.94,1.83-1.35,2.69c-.18.72-.37,1.51-.54,2.38a25.15,25.15,0,0,0-.4,2.87c-.17,2.07-.3,3.91-.38,5.53a33.36,33.36,0,0,1-.52,4.46,2.54,2.54,0,0,1-.66,1.29,1.79,1.79,0,0,1-1.38.56,1.87,1.87,0,0,1-.6-.12,2.61,2.61,0,0,1-.65-.36,2.57,2.57,0,0,1-.53-.51,1.09,1.09,0,0,1-.22-.63c0-.51,0-1.13.11-1.87s.15-1.49.24-2.24.18-1.43.26-2.05.14-1,.17-1.28c.22-1.58.41-3.28.58-5.11s.3-3.82.41-6c0-.46,0-1.07.06-1.83s0-1.52.07-2.29,0-1.5.07-2.16,0-1.14.08-1.41c.21-2.92,1-4.39,2.29-4.39a1.56,1.56,0,0,1,.75.2,2.72,2.72,0,0,1,.63.5,2.4,2.4,0,0,1,.43.7,2,2,0,0,1,.16.76,9,9,0,0,1-.17,1.73c-.11.62-.24,1.26-.38,1.91s-.26,1.29-.38,1.91a10.19,10.19,0,0,0-.17,1.73c0,.44.05.66.14.66a58,58,0,0,1,3.14-5.08,24,24,0,0,1,3.08-3.64c.66-.61,1.31-1.17,1.95-1.69a16.35,16.35,0,0,1,1.94-1.33,9.7,9.7,0,0,1,2-.87,7.92,7.92,0,0,1,2.21-.33,3.51,3.51,0,0,1,1.67.39A4.62,4.62,0,0,1,171.64,65a6.93,6.93,0,0,1,1.13,2,7.23,7.23,0,0,1,.43,2.67,7,7,0,0,1-.36,2.29,12.23,12.23,0,0,1-1,2.26,15.08,15.08,0,0,1-1.46,2.15,21.18,21.18,0,0,1-1.72,1.91,36.1,36.1,0,0,0,3.87-1.75c1.32-.69,2.65-1.43,4-2.23s2.62-1.62,3.9-2.47,2.5-1.69,3.66-2.51c.35-.24.64-.45.85-.61a1.13,1.13,0,0,1,.71-.26.35.35,0,0,1,.38.31A3.36,3.36,0,0,1,186.05,69.38Z" transform="translate(-6.03 -10.55)"/><path class="a" d="M207.14,79.89a2.77,2.77,0,0,1-.15.84,3.81,3.81,0,0,1-.47,1,8.5,8.5,0,0,1-1.09,1.46,9.9,9.9,0,0,1-1.52,1.36,8.18,8.18,0,0,1-1.82,1,5.52,5.52,0,0,1-2,.39,4.38,4.38,0,0,1-2.38-.62A5.72,5.72,0,0,1,196,83.58a9.92,9.92,0,0,1-1.19-2.49,22.44,22.44,0,0,1-.77-3,23,23,0,0,1-2.4,2.92,26.65,26.65,0,0,1-2.87,2.6,17.62,17.62,0,0,1-2.91,1.88,5.83,5.83,0,0,1-2.54.73,3,3,0,0,1-1.41-.37,4.17,4.17,0,0,1-1.19-1,4.75,4.75,0,0,1-.82-1.42,4.83,4.83,0,0,1-.3-1.7,12.5,12.5,0,0,1,.15-1.88,13.77,13.77,0,0,1,.51-2.12,24.29,24.29,0,0,1,.92-2.47c.37-.89.83-1.86,1.39-2.92A20.44,20.44,0,0,1,184.69,69a24.38,24.38,0,0,1,2.58-2.8,15.38,15.38,0,0,1,2.49-1.91,4.11,4.11,0,0,1,1.91-.7,1.47,1.47,0,0,1,.47.1l.55.19.55.19a1.78,1.78,0,0,0,.45.08,1,1,0,0,0,.37-.08l.37-.19.36-.19a.86.86,0,0,1,.37-.1,1.3,1.3,0,0,1,.6.19,3.27,3.27,0,0,1,.62.47,3.71,3.71,0,0,1,.52.65,2.8,2.8,0,0,1,.33.71,1.54,1.54,0,0,0,.24.61c.1.13.19.25.29.36a1.5,1.5,0,0,1,.26.38,1.62,1.62,0,0,1,.1.67,5.48,5.48,0,0,1-.16,1q-.17.73-.36,1.71c-.13.65-.24,1.32-.35,2a12.53,12.53,0,0,0-.16,1.93,24.32,24.32,0,0,0,.27,4,8.72,8.72,0,0,0,.76,2.47,2.68,2.68,0,0,0,2.52,1.59,6,6,0,0,0,2.86-.59,6.23,6.23,0,0,0,2-1.77c.16-.21.31-.4.43-.57s.25-.26.37-.26a.86.86,0,0,1,.59.26A.74.74,0,0,1,207.14,79.89ZM194.31,69.66a4.49,4.49,0,0,0-.52-2.48,1.45,1.45,0,0,0-1.18-.76,3.45,3.45,0,0,0-1.16.22,5.78,5.78,0,0,0-1.11.56,7.3,7.3,0,0,0-1,.76,5.52,5.52,0,0,0-.71.8c-.37.49-.76,1-1.16,1.68s-.82,1.28-1.22,2-.79,1.4-1.16,2.11-.69,1.42-1,2.1a15.86,15.86,0,0,0-.68,2,6.26,6.26,0,0,0-.25,1.66,3.14,3.14,0,0,0,.41,1.73,1.68,1.68,0,0,0,1.56.66,2.5,2.5,0,0,0,1.15-.5A14.86,14.86,0,0,0,188,80.88a23.45,23.45,0,0,0,1.68-1.64A13.43,13.43,0,0,0,191,77.55c.38-.56.77-1.18,1.15-1.86a21.19,21.19,0,0,0,1.07-2.06,15.63,15.63,0,0,0,.78-2.08A6.73,6.73,0,0,0,194.31,69.66Z" transform="translate(-6.03 -10.55)"/><path class="a" d="M214.35,66.47a1.19,1.19,0,0,1,.47.11,2.23,2.23,0,0,1,.44.29,3.34,3.34,0,0,1,.38.37,2.21,2.21,0,0,1,.27.35,2.69,2.69,0,0,1,.26,1.52,15.87,15.87,0,0,1-.36,2.36c-.16.94-.31,1.75-.43,2.46s-.22,1.39-.29,2-.11,1.36-.12,2.09,0,1.58,0,2.56a27.21,27.21,0,0,0,1.15-2.75c.37-1,.78-2.1,1.24-3.21a34.93,34.93,0,0,1,1.6-3.34,19.31,19.31,0,0,1,2.23-3.19A12.7,12.7,0,0,1,223.64,66a6.4,6.4,0,0,1,2.89-1.13,4.41,4.41,0,0,1,1.24.06,4.83,4.83,0,0,1,1.25.41,3.35,3.35,0,0,1,1,.73,1.76,1.76,0,0,1,.47,1,.92.92,0,0,1-.13.46,3,3,0,0,1-.39.59,4.84,4.84,0,0,1-.5.51,1,1,0,0,1-.45.26h-2.16a3.9,3.9,0,0,0-1.21.16,3.09,3.09,0,0,0-1,.5,7,7,0,0,0-.95.9l-1.18,1.3a11.29,11.29,0,0,0-1.38,2c-.46.81-.9,1.68-1.33,2.61s-.83,1.89-1.22,2.85-.72,1.84-1,2.64c-.18.47-.36,1-.53,1.53s-.33,1.09-.48,1.66-.29,1.14-.41,1.71-.23,1.12-.32,1.64c0,.12-.14.25-.36.38a4.24,4.24,0,0,1-.77.35c-.29.11-.56.2-.82.27a2.45,2.45,0,0,1-.51.1,1.07,1.07,0,0,1-1-.46,3.83,3.83,0,0,1-.63-1.33,9,9,0,0,1-.31-1.73c0-.62-.08-1.18-.08-1.67s0-1.17,0-2,.06-1.64.1-2.52.08-1.77.11-2.65.08-1.67.11-2.36.09-1.34.09-1.83,0-.93,0-1.32,0-.77,0-1.15a10.37,10.37,0,0,1,0-1.32,2.61,2.61,0,0,1,.3-1,3.52,3.52,0,0,1,.62-.84,3,3,0,0,1,.81-.57A1.93,1.93,0,0,1,214.35,66.47Zm44.22.32a1.72,1.72,0,0,1-.46,1.3,5.32,5.32,0,0,1-1.06.79,13.51,13.51,0,0,1-1.68.62c-.62.18-1.26.35-1.91.49s-1.3.27-2,.37-1.29.18-1.88.24l-2,.18-2.09.2c-.68.07-1.3.15-1.87.24a7.23,7.23,0,0,0-1.39.34c-.32,1.4-.66,2.72-1,4s-.66,2.52-.91,3.77c-.06.29-.14.73-.24,1.31s-.2,1.19-.29,1.82-.17,1.24-.24,1.79a10.7,10.7,0,0,0-.1,1.21,2.64,2.64,0,0,0,.3,1.41,3.09,3.09,0,0,0,.65.76l.66.54a.94.94,0,0,1,.29.75.85.85,0,0,1-.31.62,3,3,0,0,1-.74.53,4.72,4.72,0,0,1-.93.36,3.75,3.75,0,0,1-.86.12,2.09,2.09,0,0,1-1.2-.36,3.28,3.28,0,0,1-.89-1,4.52,4.52,0,0,1-.57-1.34,5.76,5.76,0,0,1-.21-1.56,15.34,15.34,0,0,1,.18-2.26c.12-.8.28-1.63.46-2.47s.38-1.7.59-2.58.4-1.75.58-2.63c.08-.36.16-.77.24-1.22s.17-.88.24-1.29.14-.75.19-1,.07-.46.07-.51a.65.65,0,0,0-.27-.56,1,1,0,0,0-.63-.2,3.38,3.38,0,0,0-.6.06l-.64.14-.63.14a2.9,2.9,0,0,1-.56,0,1.72,1.72,0,0,1-.78-.18,2,2,0,0,1-.64-.48,2.06,2.06,0,0,1-.43-.69,2.22,2.22,0,0,1-.15-.8.83.83,0,0,1,.27-.6,2.23,2.23,0,0,1,.66-.47,4.78,4.78,0,0,1,.85-.31,3.15,3.15,0,0,1,.82-.11l.64,0c.23,0,.45,0,.68-.06l.62-.06a3.1,3.1,0,0,1,.49,0l.32,0a1.23,1.23,0,0,0,.38-.13.94.94,0,0,0,.35-.34,2.32,2.32,0,0,0,.28-.68c.11-.47.24-1,.39-1.58s.31-1.17.47-1.76.31-1.16.46-1.73.27-1.07.38-1.52a11.88,11.88,0,0,0,.35-1.37c.1-.49.19-1,.28-1.47s.18-1,.29-1.42a6.75,6.75,0,0,1,.41-1.27,1.7,1.7,0,0,1,1.63-1.19c1.13,0,1.7.63,1.7,1.88a8.58,8.58,0,0,1-.51,2.69c-.73,2.32-1.28,4.24-1.63,5.75a16.91,16.91,0,0,0-.53,3,.76.76,0,0,0,.85.85c.69,0,1.34,0,1.94,0s1.22-.06,1.84-.11l2-.2,2.32-.25c.61-.08,1.2-.17,1.75-.28s1.08-.21,1.55-.31l1.27-.28a8.34,8.34,0,0,1,.91-.19,4,4,0,0,0,.5-.06,1,1,0,0,1,.41,0,.44.44,0,0,1,.27.19A.86.86,0,0,1,258.57,66.79Z" transform="translate(-6.03 -10.55)"/><path class="a" d="M284,68.7a3.67,3.67,0,0,1-.45,1.66,10.76,10.76,0,0,1-1,1.62,35.9,35.9,0,0,1-3,3.57c-1.05,1.07-2.11,2.1-3.18,3.06A15.44,15.44,0,0,1,273.06,81a6.67,6.67,0,0,1-3,.85,2.58,2.58,0,0,1-1.14-.27,4.66,4.66,0,0,1-1.06-.73,5.27,5.27,0,0,1-.87-1,5.17,5.17,0,0,1-.58-1.24,6,6,0,0,1-.21-.79c-.06-.3-.12-.58-.18-.83a3.7,3.7,0,0,0-.21-.64c-.08-.18-.16-.26-.25-.26s-.19.1-.39.29-.43.46-.7.77-.56.67-.86,1.06-.61.77-.91,1.13l-.8,1q-.36.47-.57.69a15.49,15.49,0,0,1-1.68,1.64q-1,.84-2,1.53a17.27,17.27,0,0,1-1.79,1.12,2.92,2.92,0,0,1-1.21.44,4.79,4.79,0,0,1-1.68-.29,4.38,4.38,0,0,1-1.44-.83,4.33,4.33,0,0,1-1-1.36,4.28,4.28,0,0,1-.38-1.83,13.27,13.27,0,0,1,.68-3.88,30,30,0,0,1,1.79-4.43,34.42,34.42,0,0,1,2.56-4.33,23.77,23.77,0,0,1,3-3.57,12.36,12.36,0,0,1,3.8-2.53,10.68,10.68,0,0,1,4.07-.82,1.48,1.48,0,0,1,.68.16,1.79,1.79,0,0,1,.49.42,3.2,3.2,0,0,1,.37.56c.1.21.21.42.32.63a1.38,1.38,0,0,0,.39.46l.62.52a5.68,5.68,0,0,1,.56.51.73.73,0,0,1,.24.48,3.36,3.36,0,0,1-.19,1.07c-.14.39-.28.84-.43,1.36s-.29,1.09-.42,1.74a11.5,11.5,0,0,0-.2,2.24,13.47,13.47,0,0,0,.15,1.88,11.77,11.77,0,0,0,.46,2,5.62,5.62,0,0,0,.79,1.59,1.39,1.39,0,0,0,1.13.64,3.08,3.08,0,0,0,1.56-.44,16.27,16.27,0,0,0,1.79-1.25,41.49,41.49,0,0,0,4.26-3.93c1.35-1.42,2.73-2.84,4.14-4.24a1,1,0,0,1,.68-.37C283.87,67.87,284,68.14,284,68.7ZM266.1,66.06a2.16,2.16,0,0,0-.07-.26,2.35,2.35,0,0,0-.21-.42,1.55,1.55,0,0,0-.33-.39.6.6,0,0,0-.43-.17h0a5.63,5.63,0,0,0-1.82.56,8.73,8.73,0,0,0-2,1.45,18.75,18.75,0,0,0-2.27,2.51,33.67,33.67,0,0,0-2.48,3.74l-.86,1.46a16.58,16.58,0,0,0-.89,1.74,12.8,12.8,0,0,0-.72,2,8.88,8.88,0,0,0-.28,2.27,1.23,1.23,0,0,0,.51,1.08,1.8,1.8,0,0,0,1.07.37,2.9,2.9,0,0,0,1.49-.63,15.07,15.07,0,0,0,2-1.68,30.71,30.71,0,0,0,2.18-2.38A33.65,33.65,0,0,0,263,74.57a27,27,0,0,0,1.66-2.8,11.29,11.29,0,0,0,.95-2.5c0-.23.1-.5.16-.82s.12-.62.17-.94.1-.6.14-.87A4.48,4.48,0,0,0,266.1,66.06Z" transform="translate(-6.03 -10.55)"/><path class="a" d="M312.09,80.19a3.6,3.6,0,0,1-.56,1.77,6.23,6.23,0,0,1-1.61,1.8,9.2,9.2,0,0,1-2.65,1.4,10.73,10.73,0,0,1-3.63.56A8.74,8.74,0,0,1,300,85a6.56,6.56,0,0,1-2.67-2.26,10.93,10.93,0,0,1-1.65-3.9,24.41,24.41,0,0,1-.57-5.65,9.21,9.21,0,0,0-1.08.93c-.47.47-1,1-1.59,1.66s-1.2,1.31-1.84,2-1.24,1.44-1.81,2.12-1.09,1.31-1.54,1.9-.78,1-1,1.35c-.39.58-.69,1.07-.92,1.46a7.13,7.13,0,0,1-.65.94,1.7,1.7,0,0,1-.63.5,2.11,2.11,0,0,1-.86.15,2.56,2.56,0,0,1-.89-.15,2.29,2.29,0,0,1-.71-.39,1.66,1.66,0,0,1-.46-.54,1.19,1.19,0,0,1-.16-.59c0-.28,0-.6,0-1s.08-.72.13-1.1.11-.74.17-1.11.11-.7.16-1c.15-.81.32-1.76.51-2.84s.32-2.41.43-4c.08-1,.15-1.94.22-2.83s.1-1.81.1-2.77a5.77,5.77,0,0,1,.16-1.33,3.69,3.69,0,0,1,.5-1.14,2.57,2.57,0,0,1,.82-.79,2.26,2.26,0,0,1,1.19-.3,2.12,2.12,0,0,1,.82.14,1.16,1.16,0,0,1,.75.88,2.88,2.88,0,0,1,0,.59,4.92,4.92,0,0,1,0,.67,4.68,4.68,0,0,0-.05.59s0,.22-.07.52-.11.67-.19,1.13-.18,1-.3,1.54-.23,1.13-.36,1.7c-.25,1.17-.44,2.12-.56,2.83s-.2,1.32-.25,1.84-.09,1-.11,1.43-.08,1-.15,1.61a21.71,21.71,0,0,1,1.42-1.71l1.9-2.11,1.9-2.11c.6-.69,1.08-1.26,1.43-1.71A20.41,20.41,0,0,1,293,70.6a11.72,11.72,0,0,1,1.47-1.31,6.59,6.59,0,0,1,1.61-.86,5.14,5.14,0,0,1,1.81-.31c.44,0,.73.11.85.32a1.61,1.61,0,0,1,.18.78c0,.13,0,.25,0,.38s0,.26,0,.38a4.62,4.62,0,0,1-.07.65c-.05.32-.09.66-.14,1s-.09.7-.12,1a6.39,6.39,0,0,0-.06.66,20.69,20.69,0,0,0,.3,3.66,9.4,9.4,0,0,0,1,2.87,4.91,4.91,0,0,0,1.77,1.87,5.18,5.18,0,0,0,2.71.67,12.24,12.24,0,0,0,1.82-.13,7.13,7.13,0,0,0,1.52-.42,11.47,11.47,0,0,0,1.47-.76c.49-.31,1.05-.69,1.68-1.15.15-.12.31-.24.46-.34s.24-.16.37-.23a.58.58,0,0,1,.3-.12Z" transform="translate(-6.03 -10.55)"/><path class="b" d="M358.17,56.83a1.67,1.67,0,0,1-.87.23,7.28,7.28,0,0,1-1.22-.05l-1.23-.13a3.81,3.81,0,0,0-.93,0c-.33,0-.84,0-1.52.06s-1.45.13-2.31.24-1.75.24-2.66.38-1.78.3-2.57.47-1.48.34-2.05.52a2.88,2.88,0,0,0-1.07.49,3,3,0,0,0-.31.75,15.91,15.91,0,0,0-.47,1.63c-.17.66-.34,1.42-.51,2.27s-.32,1.73-.45,2.65-.23,1.84-.31,2.78a19.89,19.89,0,0,0,0,2.66c1.05-.31,2.12-.57,3.2-.79l3.57-.73a13.79,13.79,0,0,0,1.92-.48l2.06-.63c.68-.21,1.33-.39,1.94-.54a6.9,6.9,0,0,1,1.6-.23,3.81,3.81,0,0,1,1,.12,1.73,1.73,0,0,1,.69.35,1.64,1.64,0,0,1,.43.62,6.06,6.06,0,0,1,.3.91.56.56,0,0,1-.11.38,5.42,5.42,0,0,1-.36.46,6.08,6.08,0,0,1-.44.44l-.33.35a2.45,2.45,0,0,1-.9.47c-.44.14-.9.27-1.39.38s-1,.2-1.44.27l-1,.19-2.45.47c-.85.16-1.68.33-2.5.5l-2.34.52c-.74.17-1.4.33-2,.5a12.5,12.5,0,0,0-1.41.48c-.37.16-.58.3-.64.44a4.52,4.52,0,0,0-.29,1.07c-.08.43-.15.91-.2,1.44s-.09,1.09-.1,1.67,0,1.15,0,1.72,0,1.11,0,1.63,0,1,.05,1.35,0,1,0,1.52a5.33,5.33,0,0,1-.12,1.44,1.47,1.47,0,0,1-.56.78,2,2,0,0,1-1.28.21c-.07,0-.25-.07-.53-.17a3.33,3.33,0,0,1-.86-.49,3.9,3.9,0,0,1-.8-.82,2,2,0,0,1-.36-1.21,43.59,43.59,0,0,1,.27-5.24c.19-1.64.38-3.28.58-4.9.16-1.3.33-2.65.53-4.06s.4-2.83.61-4.25l.63-4.23c.22-1.4.41-2.75.6-4a2.36,2.36,0,0,0,0-.75,5.56,5.56,0,0,0-.18-.76l-.24-.75a7.61,7.61,0,0,1-.2-.75,1.2,1.2,0,0,1,.17-.73,3.26,3.26,0,0,1,.52-.73,3.87,3.87,0,0,1,.69-.55,1.21,1.21,0,0,1,.69-.19c.31,0,.59.07.84.11l.72.12.69.08c.23,0,.47,0,.73,0a12.78,12.78,0,0,0,1.53-.11c.57-.08,1.17-.17,1.79-.29s1.25-.24,1.88-.37l1.78-.35c1.7-.31,3.26-.56,4.68-.77a27.06,27.06,0,0,1,3.93-.31,2.17,2.17,0,0,1,.67.14,5.48,5.48,0,0,1,.8.34,3.46,3.46,0,0,1,.67.47.85.85,0,0,1,.31.54,3.3,3.3,0,0,1-.24,1.37A3.11,3.11,0,0,1,358.17,56.83Z" transform="translate(-6.03 -10.55)"/><path class="b" d="M382,69.22a.72.72,0,0,1-.31.59,3.63,3.63,0,0,1-.82.45,10,10,0,0,1-1.13.37l-1.25.38a17,17,0,0,0-3.07,1.32,15.29,15.29,0,0,0-3.27,2.58,18.68,18.68,0,0,0-2.28,2.84,20.68,20.68,0,0,0-1.64,3.13,26.12,26.12,0,0,0-1.17,3.5c-.32,1.23-.6,2.54-.83,3.94l-.43.48a2.37,2.37,0,0,1-.39.34,1.84,1.84,0,0,1-.47.22,2.59,2.59,0,0,1-.68.08,1,1,0,0,1-.93-.52,3.57,3.57,0,0,1-.49-1.21,7.6,7.6,0,0,1-.2-1.41c0-.48,0-.85,0-1.13s0-.66,0-1.11,0-.94.06-1.48.05-1.09.08-1.66.06-1.13.08-1.67,0-1,.06-1.48,0-.82,0-1.11c0-.7,0-1.29,0-1.75s-.05-.84-.08-1.17-.06-.6-.11-.86-.09-.52-.12-.82-.05-.65-.08-1.06,0-.93,0-1.57a2.18,2.18,0,0,1,.21-.93,2.37,2.37,0,0,1,.54-.78,2.62,2.62,0,0,1,.75-.53,2,2,0,0,1,.84-.19,2.12,2.12,0,0,1,.9.2,2.69,2.69,0,0,1,.71.53,2.3,2.3,0,0,1,.46.75,2.57,2.57,0,0,1,.16.86c0,.58,0,1.27-.12,2.08s-.15,1.62-.24,2.45-.16,1.64-.22,2.41-.08,1.42-.07,1.94a38.83,38.83,0,0,1,2.29-3.81,22.42,22.42,0,0,1,2.89-3.5A14.75,14.75,0,0,1,375,68.34a8.24,8.24,0,0,1,4-1,5.59,5.59,0,0,1,.94.09,3.59,3.59,0,0,1,1,.32,2.54,2.54,0,0,1,.77.59A1.28,1.28,0,0,1,382,69.22Z" transform="translate(-6.03 -10.55)"/><path class="b" d="M411.5,71.17a3.17,3.17,0,0,1-.5,1.22,40.64,40.64,0,0,1-2.68,3.44,38.76,38.76,0,0,1-3.14,3.27A39.36,39.36,0,0,1,401.71,82a28,28,0,0,1-3.63,2.32,20.1,20.1,0,0,1-3.66,1.51,12,12,0,0,1-3.53.5,7.5,7.5,0,0,1-5.7-2.13q-2-2.14-2-6.45a22.38,22.38,0,0,1,1.11-7,19.26,19.26,0,0,1,3.8-6.54,10.58,10.58,0,0,1,1.14-1.06,9.94,9.94,0,0,1,1.33-.89,7.28,7.28,0,0,1,1.44-.62,6.09,6.09,0,0,1,1.51-.28,4.73,4.73,0,0,1,1.19.21,4.76,4.76,0,0,1,.71.28,1.73,1.73,0,0,1,.55.43,6.69,6.69,0,0,1,1,1.51,4.29,4.29,0,0,1,.43,1.73,6.6,6.6,0,0,1-.24,2.07,8,8,0,0,1-1,2.09,13.32,13.32,0,0,1-1.78,2.2,33.66,33.66,0,0,1-2.66,2.45l-2.19,1.82a29.39,29.39,0,0,1-2.9,2.1A4.21,4.21,0,0,0,388,81.63a5.45,5.45,0,0,0,3.68,1.16,10.47,10.47,0,0,0,2.64-.35,18,18,0,0,0,2.62-.9,22.54,22.54,0,0,0,2.49-1.29c.8-.48,1.56-1,2.26-1.48q1.95-1.42,3.53-2.83c1.06-.94,2.11-1.94,3.15-3l1.24-1.24a3.31,3.31,0,0,1,1.63-1C411.41,70.74,411.5,70.88,411.5,71.17ZM394,66.61a5.06,5.06,0,0,0-.1-.68,2.1,2.1,0,0,0-.25-.59,1.56,1.56,0,0,0-.36-.4.81.81,0,0,0-.49-.15,3.64,3.64,0,0,0-2.43,1.48A16.32,16.32,0,0,0,388.05,70a7.52,7.52,0,0,0-.45,1.14c-.13.42-.25.85-.37,1.28s-.21.87-.3,1.3-.15.81-.21,1.15l2.2-1.65c.67-.51,1.3-1,1.88-1.56.37-.34.74-.7,1.13-1.09a10.92,10.92,0,0,0,1-1.23,6.54,6.54,0,0,0,.75-1.33A3.61,3.61,0,0,0,394,66.61Z" transform="translate(-6.03 -10.55)"/><path class="b" d="M416.73,64.63a1.66,1.66,0,0,1-.16.62,5.59,5.59,0,0,1-.43.84,9.78,9.78,0,0,1-.65.92,7.12,7.12,0,0,1-.78.86c-.18.17-.38.36-.59.58a5.79,5.79,0,0,0-.59.72,4,4,0,0,0-.43.79,1.92,1.92,0,0,0-.18.78,5.83,5.83,0,0,0,.41,2.12,12.56,12.56,0,0,0,1.29,2.4c.28.41.6.88,1,1.4s.73,1.07,1.1,1.66a20.59,20.59,0,0,1,1,1.86,10.43,10.43,0,0,1,.69,2q2.13-1.8,4.16-3.87t3.79-4.19Q428.1,72,429.49,70a37.3,37.3,0,0,0,2.28-3.62l.6-1.12a6.63,6.63,0,0,1,.45-.72,1.61,1.61,0,0,1,.4-.39.94.94,0,0,1,.45-.11.73.73,0,0,1,.67.32,1.7,1.7,0,0,1,.2.89,5.3,5.3,0,0,1-.45,1.68,20.37,20.37,0,0,1-1.41,2.83c-.64,1.13-1.47,2.41-2.49,3.86s-2.24,3-3.68,4.76c-.8,1-1.7,1.93-2.71,3s-2.06,2-3.17,3-2.21,1.88-3.32,2.74-2.17,1.62-3.16,2.28a22,22,0,0,1-2.68,1.54,4.77,4.77,0,0,1-1.9.58,1.25,1.25,0,0,1-.7-.22,2.4,2.4,0,0,1-.57-.53,2.88,2.88,0,0,1-.39-.65,1.59,1.59,0,0,1-.15-.62,1.68,1.68,0,0,1,.24-.9,3,3,0,0,1,.64-.71,5.52,5.52,0,0,1,.92-.57c.35-.17.69-.33,1.05-.48s.49-.19.78-.3l.89-.33c.31-.12.6-.25.89-.39a3.56,3.56,0,0,0,.7-.48,3.3,3.3,0,0,0,.75-1.06A2.92,2.92,0,0,0,414.9,83a2.58,2.58,0,0,0-.25-.94,8.44,8.44,0,0,0-.67-1.23c-.27-.44-.58-.9-.92-1.38s-.67-1-1-1.42l-.95-1.33a11.24,11.24,0,0,1-.72-1.12,10.79,10.79,0,0,1-.92-1.9,6,6,0,0,1-.39-2.13,5.53,5.53,0,0,1,.11-1c.08-.37.18-.76.3-1.16s.25-.78.38-1.14a8.11,8.11,0,0,1,.38-.92l.31-.48c.16-.25.36-.52.6-.83s.5-.63.79-1a11.8,11.8,0,0,1,.88-1,5.79,5.79,0,0,1,.87-.71,1.49,1.49,0,0,1,.77-.27,3,3,0,0,1,1.62.41A1.25,1.25,0,0,1,416.73,64.63Z" transform="translate(-6.03 -10.55)"/><path class="b" d="M462.77,71.93a5.58,5.58,0,0,1,0,.68c0,.31-.07.64-.12,1s-.11.67-.17,1a2.64,2.64,0,0,1-.19.64,22.2,22.2,0,0,1-2,3,16.12,16.12,0,0,1-2.44,2.56,12.11,12.11,0,0,1-2.71,1.77,6.5,6.5,0,0,1-2.8.67,6.74,6.74,0,0,1-2.3-.35,4.7,4.7,0,0,1-1.6-.92,4.47,4.47,0,0,1-1-1.29,8.83,8.83,0,0,1-.6-1.48,14.73,14.73,0,0,1-.33-1.48c-.08-.49-.14-.92-.21-1.3a6.85,6.85,0,0,1-.06-1,20.27,20.27,0,0,1,.11-2.1,21.15,21.15,0,0,0,.11-2.17,6.23,6.23,0,0,0-.1-1.23,1.11,1.11,0,0,0-.38-.72,9.19,9.19,0,0,0-.95,1c-.3.36-.62.76-.95,1.18s-.7.87-1.08,1.36-.82,1-1.31,1.56a8,8,0,0,0-.56.88c-.27.45-.59,1-1,1.68l-1.24,2.19c-.46.8-.93,1.61-1.42,2.43s-1,1.61-1.48,2.38-1,1.46-1.41,2.06a10.53,10.53,0,0,1-1.24,1.43,1.57,1.57,0,0,1-.94.54,2.5,2.5,0,0,1-.67-.07,3.18,3.18,0,0,1-.46-.14l-.35-.13a.67.67,0,0,0-.31-.07A9.18,9.18,0,0,1,430.3,86c-.06-.6-.11-1.2-.14-1.8s-.05-1.16-.06-1.68,0-.9,0-1.16a49.38,49.38,0,0,1,.45-6.47c.3-2.26.65-4.64,1.07-7.12s.84-5.09,1.28-7.81.81-5.55,1.1-8.52a4.71,4.71,0,0,1,.4-1.15,4.93,4.93,0,0,1,.57-.86,2.39,2.39,0,0,1,.58-.54.94.94,0,0,1,.45-.18h0a1.31,1.31,0,0,1,.68.33,2.5,2.5,0,0,1,.58.75,4.73,4.73,0,0,1,.42,1,4.45,4.45,0,0,1,.16,1.16,3.1,3.1,0,0,1-.09.78L437.48,54l-.22,1c-.07.3-.13.59-.18.86s-.12.59-.18.94-.15.77-.23,1.24-.19,1-.31,1.7l-.15.93c-.09.5-.19,1.11-.31,1.83s-.26,1.55-.42,2.45-.3,1.82-.46,2.74-.3,1.84-.44,2.73-.28,1.71-.39,2.45-.21,1.35-.28,1.84a8.84,8.84,0,0,0-.1,1,4.83,4.83,0,0,1,0,.59q0,.38-.06.81t-.06.9c0,.32,0,.63,0,.93s0,.6,0,.86a2.34,2.34,0,0,0,.15.7A8.76,8.76,0,0,0,435,79.24c.43-.5.88-1,1.35-1.66s.94-1.27,1.42-2l1.45-2.06,1.4-2A19.46,19.46,0,0,1,442,70a9.13,9.13,0,0,1,.73-1.13c.31-.41.63-.82,1-1.22a14.3,14.3,0,0,1,1.05-1.13c.36-.34.69-.63,1-.86a4.54,4.54,0,0,1,1.69-.87,6.73,6.73,0,0,1,1.43-.16q.23,0,.42.33a4.64,4.64,0,0,1,.36.8,7.69,7.69,0,0,1,.25,1,5.57,5.57,0,0,1,.09.92,6.94,6.94,0,0,1-.1,1c-.07.45-.14.94-.22,1.49s-.15,1.13-.22,1.73a14.65,14.65,0,0,0-.1,1.72,2.72,2.72,0,0,0,0,.28c0,.1,0,.2,0,.29,0,.43.08.95.15,1.55a6.84,6.84,0,0,0,.44,1.74,3.84,3.84,0,0,0,1,1.43,2.45,2.45,0,0,0,1.73.58,5.69,5.69,0,0,0,2.16-.42,9,9,0,0,0,2.06-1.24,17.39,17.39,0,0,0,2.07-2c.71-.79,1.45-1.69,2.23-2.72a4.69,4.69,0,0,1,.89-.89,1.54,1.54,0,0,1,.67-.37A.08.08,0,0,1,462.77,71.93Z" transform="translate(-6.03 -10.55)"/><path class="a" d="M108.75,40a7.2,7.2,0,0,0-5.67-2.72H83L72.11,12.39a3,3,0,1,0-5.59,2.44l9.82,22.49H40l9.82-22.49a3,3,0,1,0-5.59-2.44L33.33,37.32H13.25A7.2,7.2,0,0,0,7.58,40a7,7,0,0,0-1.37,6L16.93,92.86a7.16,7.16,0,0,0,7,5.55H92.36a7.16,7.16,0,0,0,7-5.55L110.12,46a7,7,0,0,0-1.37-6ZM92.36,92.3H24a1.1,1.1,0,0,1-1.08-.8L12.17,44.66a.89.89,0,0,1,.19-.81,1.08,1.08,0,0,1,.89-.42H30.66l-.8,1.83a3,3,0,0,0,1.58,4,2.91,2.91,0,0,0,1.22.26,3.07,3.07,0,0,0,2.8-1.83l1.87-4.28H79l1.87,4.28a3.05,3.05,0,0,0,2.8,1.83,2.91,2.91,0,0,0,1.22-.26,3,3,0,0,0,1.58-4l-.8-1.83h17.41a1.08,1.08,0,0,1,.89.42.89.89,0,0,1,.19.81L93.44,91.5a1.1,1.1,0,0,1-1.08.8Z" transform="translate(-6.03 -10.55)"/><circle class="c" cx="72.85" cy="102.81" r="9.6"/><circle class="c" cx="30.96" cy="102.81" r="9.6"/><path class="d" d="M66.83,60c2.49,2.49,4.48,6.54,3.35,9C67.1,75.46,44,86.8,42.06,84.8s9.39-25,15.81-28.12C60.25,55.54,64.35,57.54,66.83,60Z" transform="translate(-6.03 -10.55)"/><circle class="b" cx="64.47" cy="45.8" r="3.99"/></svg>