<?xml version="1.0" encoding="utf-8"?>
<!-- Generator: Adobe Illustrator 25.2.3, SVG Export Plug-In . SVG Version: 6.00 Build 0)  -->
<svg version="1.1" id="Capa_1" xmlns="http://www.w3.org/2000/svg" xmlns:xlink="http://www.w3.org/1999/xlink" x="0px" y="0px"
	 viewBox="0 0 470.6 132" enable-background="new 0 0 470.6 132" xml:space="preserve">
<g>
	<rect x="117.5" y="50.9" fill="none" width="343" height="47.6"/>
	<path fill="#383634" d="M144.8,57.9c0,0.2,0,0.4-0.1,0.7c0,0.3-0.1,0.6-0.2,0.9c-0.1,0.3-0.2,0.6-0.3,0.8c-0.1,0.3-0.2,0.5-0.4,0.6
		c-0.4,0.4-1,0.7-2,0.7c0-1-0.1-1.9-0.4-2.6c-0.1-0.3-0.4-0.6-0.7-0.8c-0.4-0.2-0.8-0.4-1.2-0.6c-0.4-0.2-0.9-0.3-1.3-0.3
		c-0.5-0.1-0.8-0.1-1.2-0.1c-0.7,0-1.4,0-2.1,0c-0.7,0-1.3,0.1-2,0.2c-0.7,0.1-1.3,0.2-2,0.4c-0.7,0.2-1.4,0.4-2.1,0.7
		c-0.6,0.2-1.1,0.5-1.7,0.8c-0.6,0.3-1.1,0.7-1.7,1.1c-0.5,0.4-0.9,0.8-1.3,1.3c-0.4,0.5-0.6,1-0.7,1.6c0,0.4,0.1,0.9,0.4,1.5
		c0.3,0.6,0.7,1.1,1.2,1.6c0.5,0.5,1.1,1,1.7,1.4c0.7,0.4,1.3,0.7,2,0.9c0.1,0,0.4,0.1,0.8,0.3c0.4,0.2,0.9,0.3,1.4,0.5
		c0.5,0.2,1,0.3,1.4,0.5c0.4,0.1,0.7,0.2,0.8,0.3c3.5,0.9,6,1.9,7.7,3.2c1.7,1.2,2.5,2.7,2.5,4.5c0,0.6-0.1,1.1-0.4,1.7
		c-0.3,0.6-0.6,1.1-1,1.6c-0.4,0.5-0.8,1-1.2,1.4c-0.4,0.4-0.9,0.8-1.2,1.1c-0.4,0.4-0.9,0.7-1.5,1.1c-0.6,0.4-1.2,0.7-1.8,1.1
		c-0.6,0.4-1.3,0.7-2,1c-0.7,0.3-1.4,0.6-2.1,0.8c-0.7,0.2-1.4,0.4-2.2,0.6c-0.8,0.2-1.5,0.4-2.2,0.5c-0.7,0.1-1.5,0.2-2.1,0.3
		c-0.7,0.1-1.3,0.1-1.8,0.1c-0.4,0-0.9-0.1-1.5-0.2c-0.6-0.1-1.3-0.3-1.9-0.5c-0.6-0.2-1.1-0.5-1.6-0.7c-0.4-0.3-0.7-0.6-0.7-0.9
		c0-0.2,0-0.4,0.1-0.7c0.1-0.3,0.1-0.6,0.2-0.8c0.1-0.3,0.2-0.5,0.3-0.7c0.1-0.2,0.3-0.3,0.4-0.3c0.3,0,0.6,0,1,0.1
		c0.3,0.1,0.7,0.2,1.2,0.3c0.5,0.1,1,0.2,1.6,0.3c0.6,0.1,1.4,0.1,2.3,0.1c0.9,0,1.9-0.1,2.9-0.3c1-0.2,2-0.4,2.9-0.8
		c0.9-0.3,1.9-0.7,2.7-1.1s1.6-0.8,2.3-1.3c0.3-0.2,0.7-0.5,1.1-0.7c0.4-0.3,0.8-0.6,1.1-0.9c0.3-0.3,0.6-0.7,0.8-1.1
		c0.2-0.4,0.3-0.8,0.3-1.2c0-0.6-0.4-1.1-1.3-1.7c-0.8-0.5-1.7-0.9-2.6-1.2c-0.9-0.3-1.7-0.5-2.4-0.7c-0.8-0.2-1.8-0.5-2.8-0.8
		c-1-0.4-2.2-0.8-3.5-1.3c-2.1-0.8-3.8-2-5.3-3.5c-1.4-1.5-2.2-3.4-2.2-5.5c0-1,0.3-2,0.9-2.9c0.6-0.9,1.5-1.8,2.6-2.6
		c1.1-0.8,2.4-1.5,3.8-2.1c1.4-0.6,2.9-1.1,4.4-1.5c0.3-0.1,0.7-0.1,1.1-0.2c0.4-0.1,0.9-0.1,1.4-0.2s0.9-0.1,1.4-0.1
		c0.4,0,0.8-0.1,1.1-0.1c0.4,0,0.8,0,1.4,0.1c0.6,0.1,1.1,0.1,1.7,0.2c0.6,0.1,1.1,0.2,1.7,0.3c0.5,0.1,1,0.3,1.3,0.5
		c0.8,0.4,1.4,0.9,1.8,1.5C144.6,56.7,144.8,57.3,144.8,57.9z"/>
	<path fill="#383634" d="M186,69.4c0,0.5-0.2,1-0.5,1.7c-0.1,0.2-0.2,0.3-0.4,0.5c-0.2,0.2-0.4,0.4-0.6,0.6
		c-0.2,0.2-0.4,0.3-0.6,0.5c-0.2,0.1-0.3,0.3-0.4,0.3c-0.5,0.4-1.2,0.9-2,1.4c-0.8,0.5-1.7,1.1-2.7,1.6c-1,0.6-2,1.2-3.1,1.7
		c-1.1,0.6-2.2,1.2-3.3,1.7c-1.1,0.6-2.1,1.1-3.2,1.6c-1,0.5-2,0.9-2.8,1.3c-0.6,0.3-1.2,0.6-1.7,0.9c-0.6,0.3-1.1,0.7-1.6,1
		c-0.5,0.3-1.1,0.5-1.6,0.7c-0.5,0.2-1.1,0.3-1.7,0.3c-0.4,0-0.7,0-1-0.1c-0.3-0.1-0.6-0.2-0.9-0.4c-0.3-0.2-0.5-0.4-0.6-0.7
		c-0.2-0.3-0.2-0.6-0.2-1c0-0.2,0.1-0.4,0.2-0.6c0.1-0.2,0.3-0.3,0.6-0.5c0.2-0.1,0.5-0.3,0.8-0.4c0.3-0.1,0.5-0.2,0.8-0.3
		c0.3-0.1,0.6-0.2,1-0.3c0.4-0.1,0.8-0.2,1.1-0.3c0.4-0.1,0.8-0.2,1.1-0.4c0.4-0.1,0.7-0.2,0.9-0.4c0.5-0.3,0.9-0.6,1.4-1
		c0.4-0.4,0.8-0.8,1.2-1.3c0.4-0.5,0.7-1,1-1.5c0.3-0.5,0.6-1,0.9-1.5c0.2-0.3,0.4-0.7,0.5-1.1c0.2-0.4,0.3-0.8,0.4-1.2
		c0.1-0.4,0.2-0.8,0.3-1.1c0.1-0.4,0.1-0.7,0.1-0.9c0-1.1-0.2-1.9-0.7-2.5c-0.5-0.6-1-0.9-1.7-0.9c-0.4,0-0.9,0.1-1.5,0.4
		c-0.6,0.3-1.1,0.6-1.7,1c-0.6,0.4-1.1,0.8-1.6,1.3c-0.5,0.4-0.9,0.8-1.2,1.1c-0.7,0.8-1.4,1.6-2,2.4c-0.6,0.9-1.2,1.8-1.8,2.7
		c-0.6,0.9-1.1,1.9-1.6,2.8c-0.5,0.9-0.9,1.8-1.4,2.7c-0.2,0.7-0.4,1.5-0.5,2.4s-0.3,1.8-0.4,2.9c-0.2,2.1-0.3,3.9-0.4,5.5
		c-0.1,1.6-0.3,3.1-0.5,4.5c-0.1,0.5-0.3,0.9-0.7,1.3c-0.4,0.4-0.8,0.6-1.4,0.6c-0.2,0-0.4,0-0.6-0.1s-0.4-0.2-0.7-0.4
		c-0.2-0.2-0.4-0.3-0.5-0.5c-0.1-0.2-0.2-0.4-0.2-0.6c0-0.5,0-1.1,0.1-1.9c0.1-0.7,0.1-1.5,0.2-2.2c0.1-0.8,0.2-1.4,0.3-2
		c0.1-0.6,0.1-1,0.2-1.3c0.2-1.6,0.4-3.3,0.6-5.1c0.2-1.8,0.3-3.8,0.4-6c0-0.5,0-1.1,0.1-1.8c0-0.8,0-1.5,0.1-2.3
		c0-0.8,0-1.5,0.1-2.2c0-0.7,0-1.1,0.1-1.4c0.2-2.9,1-4.4,2.3-4.4c0.3,0,0.5,0.1,0.7,0.2c0.2,0.1,0.4,0.3,0.6,0.5
		c0.2,0.2,0.3,0.4,0.4,0.7c0.1,0.3,0.2,0.5,0.2,0.8c0,0.5-0.1,1.1-0.2,1.7c-0.1,0.6-0.2,1.3-0.4,1.9c-0.1,0.7-0.3,1.3-0.4,1.9
		c-0.1,0.6-0.2,1.2-0.2,1.7c0,0.4,0,0.7,0.1,0.7c1.1-1.9,2.1-3.6,3.1-5.1c1-1.5,2.1-2.7,3.1-3.6c0.7-0.6,1.3-1.2,2-1.7
		c0.6-0.5,1.3-1,1.9-1.3c0.6-0.4,1.3-0.7,2-0.9c0.7-0.2,1.4-0.3,2.2-0.3c0.5,0,1.1,0.1,1.7,0.4c0.6,0.3,1.1,0.7,1.5,1.2
		s0.8,1.2,1.1,2c0.3,0.8,0.4,1.7,0.4,2.7c0,0.8-0.1,1.5-0.4,2.3c-0.3,0.8-0.6,1.5-1,2.3s-0.9,1.5-1.5,2.1s-1.1,1.3-1.7,1.9
		c1.3-0.5,2.5-1.1,3.9-1.7s2.6-1.4,4-2.2c1.3-0.8,2.6-1.6,3.9-2.5c1.3-0.9,2.5-1.7,3.7-2.5c0.4-0.2,0.6-0.5,0.8-0.6
		c0.2-0.2,0.5-0.3,0.7-0.3c0.2,0,0.3,0.1,0.4,0.3C186,69,186,69.2,186,69.4z"/>
	<path fill="#383634" d="M207.1,79.9c0,0.2,0,0.5-0.1,0.8s-0.3,0.6-0.5,1c-0.3,0.5-0.6,1-1.1,1.5c-0.5,0.5-1,0.9-1.5,1.4
		s-1.2,0.7-1.8,1c-0.7,0.3-1.3,0.4-2,0.4c-0.9,0-1.7-0.2-2.4-0.6c-0.7-0.4-1.2-1-1.7-1.7c-0.5-0.7-0.9-1.5-1.2-2.5
		c-0.3-0.9-0.6-2-0.8-3c-0.7,1-1.5,2-2.4,2.9c-0.9,1-1.9,1.8-2.9,2.6c-1,0.8-2,1.4-2.9,1.9c-1,0.5-1.8,0.7-2.5,0.7
		c-0.5,0-1-0.1-1.4-0.4c-0.5-0.2-0.8-0.6-1.2-1c-0.3-0.4-0.6-0.9-0.8-1.4c-0.2-0.5-0.3-1.1-0.3-1.7s0-1.2,0.1-1.9
		c0.1-0.7,0.3-1.4,0.5-2.1c0.2-0.8,0.5-1.6,0.9-2.5c0.4-0.9,0.8-1.9,1.4-2.9c0.6-1.2,1.3-2.3,2.2-3.4c0.8-1.1,1.7-2,2.6-2.8
		c0.9-0.8,1.7-1.4,2.5-1.9c0.8-0.5,1.4-0.7,1.9-0.7c0.1,0,0.3,0,0.5,0.1c0.2,0.1,0.4,0.1,0.6,0.2c0.2,0.1,0.4,0.1,0.6,0.2
		c0.2,0.1,0.3,0.1,0.4,0.1c0.1,0,0.2,0,0.4-0.1c0.1-0.1,0.2-0.1,0.4-0.2c0.1-0.1,0.2-0.1,0.4-0.2c0.1-0.1,0.2-0.1,0.4-0.1
		c0.2,0,0.4,0.1,0.6,0.2c0.2,0.1,0.4,0.3,0.6,0.5c0.2,0.2,0.4,0.4,0.5,0.7c0.2,0.2,0.3,0.5,0.3,0.7c0.1,0.3,0.1,0.5,0.2,0.6
		c0.1,0.1,0.2,0.2,0.3,0.4c0.1,0.1,0.2,0.2,0.3,0.4c0.1,0.1,0.1,0.4,0.1,0.7c0,0.2-0.1,0.5-0.2,1c-0.1,0.5-0.2,1.1-0.4,1.7
		c-0.1,0.7-0.2,1.3-0.4,2c-0.1,0.7-0.2,1.3-0.2,1.9c0,1.6,0.1,3,0.3,4c0.2,1,0.4,1.9,0.8,2.5c0.3,0.6,0.7,1,1.1,1.3
		c0.4,0.2,0.9,0.3,1.4,0.3c1.2,0,2.1-0.2,2.9-0.6c0.7-0.4,1.4-1,2-1.8c0.2-0.2,0.3-0.4,0.4-0.6c0.1-0.2,0.2-0.3,0.4-0.3
		c0.2,0,0.4,0.1,0.6,0.3C207.1,79.5,207.1,79.7,207.1,79.9z M194.3,69.7c0-1.1-0.2-2-0.5-2.5c-0.3-0.5-0.7-0.8-1.2-0.8
		c-0.4,0-0.8,0.1-1.2,0.2c-0.4,0.1-0.8,0.3-1.1,0.6c-0.4,0.2-0.7,0.5-1,0.8c-0.3,0.3-0.5,0.5-0.7,0.8c-0.4,0.5-0.8,1-1.2,1.7
		c-0.4,0.6-0.8,1.3-1.2,2s-0.8,1.4-1.2,2.1c-0.4,0.7-0.7,1.4-1,2.1c-0.3,0.7-0.5,1.3-0.7,2c-0.2,0.6-0.3,1.2-0.3,1.7
		c0,0.7,0.1,1.3,0.4,1.7c0.3,0.4,0.8,0.7,1.6,0.7c0.3,0,0.6-0.2,1.1-0.5c0.5-0.3,1-0.7,1.6-1.3c0.6-0.5,1.1-1.1,1.7-1.6
		c0.6-0.6,1-1.2,1.4-1.7c0.4-0.6,0.8-1.2,1.2-1.9c0.4-0.7,0.7-1.4,1.1-2.1c0.3-0.7,0.6-1.4,0.8-2.1
		C194.2,70.9,194.3,70.2,194.3,69.7z"/>
	<path fill="#383634" d="M214.3,66.5c0.2,0,0.3,0,0.5,0.1c0.2,0.1,0.3,0.2,0.4,0.3c0.1,0.1,0.3,0.2,0.4,0.4c0.1,0.1,0.2,0.2,0.3,0.4
		c0.2,0.4,0.3,0.9,0.3,1.5c0,0.7-0.2,1.4-0.4,2.4c-0.2,0.9-0.3,1.8-0.4,2.5c-0.1,0.7-0.2,1.4-0.3,2.1c-0.1,0.7-0.1,1.4-0.1,2.1
		c0,0.7,0,1.6,0,2.6c0.4-0.8,0.8-1.7,1.1-2.8c0.4-1,0.8-2.1,1.2-3.2s1-2.2,1.6-3.3c0.6-1.1,1.4-2.2,2.2-3.2c0.7-0.8,1.5-1.5,2.4-2.2
		c0.9-0.6,1.9-1,2.9-1.1c0.4,0,0.8,0,1.2,0.1c0.4,0.1,0.9,0.2,1.3,0.4c0.4,0.2,0.7,0.4,1,0.7c0.3,0.3,0.4,0.6,0.5,1
		c0,0.1,0,0.3-0.1,0.5c-0.1,0.2-0.2,0.4-0.4,0.6c-0.2,0.2-0.3,0.4-0.5,0.5c-0.2,0.2-0.3,0.2-0.4,0.3c0,0-0.2,0-0.3,0s-0.4,0-0.6,0
		c-0.2,0-0.5,0-0.7,0s-0.4,0-0.5,0c-0.5,0-0.9,0.1-1.2,0.2c-0.3,0.1-0.7,0.3-1,0.5c-0.3,0.2-0.6,0.5-1,0.9s-0.7,0.8-1.2,1.3
		s-0.9,1.2-1.4,2c-0.5,0.8-0.9,1.7-1.3,2.6c-0.4,0.9-0.8,1.9-1.2,2.8c-0.4,1-0.7,1.8-1,2.6c-0.2,0.5-0.4,1-0.5,1.5
		c-0.2,0.5-0.3,1.1-0.5,1.7c-0.2,0.6-0.3,1.1-0.4,1.7c-0.1,0.6-0.2,1.1-0.3,1.6c0,0.1-0.1,0.2-0.4,0.4c-0.2,0.1-0.5,0.2-0.8,0.4
		c-0.3,0.1-0.6,0.2-0.8,0.3c-0.3,0.1-0.4,0.1-0.5,0.1c-0.4,0-0.8-0.1-1-0.5c-0.3-0.4-0.5-0.8-0.6-1.3c-0.2-0.5-0.3-1.1-0.3-1.7
		c-0.1-0.6-0.1-1.2-0.1-1.7c0-0.5,0-1.2,0-2c0-0.8,0.1-1.6,0.1-2.5c0-0.9,0.1-1.8,0.1-2.7s0.1-1.7,0.1-2.4c0.1-0.7,0.1-1.3,0.1-1.8
		c0-0.5,0-0.9,0-1.3c0-0.4,0-0.8-0.1-1.1c0-0.4,0-0.8,0-1.3c0-0.4,0.1-0.7,0.3-1c0.2-0.3,0.4-0.6,0.6-0.8c0.2-0.2,0.5-0.4,0.8-0.6
		C213.8,66.5,214.1,66.5,214.3,66.5z M258.6,66.8c0,0.6-0.2,1-0.5,1.3c-0.3,0.3-0.7,0.6-1.1,0.8c-0.5,0.2-1.1,0.4-1.7,0.6
		c-0.6,0.2-1.3,0.3-1.9,0.5s-1.3,0.3-2,0.4c-0.7,0.1-1.3,0.2-1.9,0.2c-0.6,0.1-1.3,0.1-2,0.2c-0.7,0.1-1.4,0.1-2.1,0.2
		c-0.7,0.1-1.3,0.1-1.9,0.2c-0.6,0.1-1,0.2-1.4,0.3c-0.3,1.4-0.7,2.7-1,4c-0.4,1.3-0.7,2.5-0.9,3.8c-0.1,0.3-0.1,0.7-0.2,1.3
		c-0.1,0.6-0.2,1.2-0.3,1.8c-0.1,0.6-0.2,1.2-0.2,1.8c-0.1,0.6-0.1,1-0.1,1.2c0,0.6,0.1,1.1,0.3,1.4c0.2,0.3,0.4,0.6,0.7,0.8
		c0.2,0.2,0.5,0.4,0.7,0.5c0.2,0.2,0.3,0.4,0.3,0.8c0,0.2-0.1,0.4-0.3,0.6c-0.2,0.2-0.5,0.4-0.7,0.5c-0.3,0.2-0.6,0.3-0.9,0.4
		c-0.3,0.1-0.6,0.1-0.9,0.1c-0.4,0-0.8-0.1-1.2-0.4c-0.4-0.2-0.7-0.6-0.9-1c-0.2-0.4-0.4-0.8-0.6-1.3c-0.1-0.5-0.2-1-0.2-1.6
		c0-0.7,0.1-1.5,0.2-2.3c0.1-0.8,0.3-1.6,0.5-2.5c0.2-0.8,0.4-1.7,0.6-2.6c0.2-0.9,0.4-1.8,0.6-2.6c0.1-0.4,0.2-0.8,0.2-1.2
		c0.1-0.5,0.2-0.9,0.2-1.3c0.1-0.4,0.1-0.8,0.2-1c0-0.3,0.1-0.5,0.1-0.5c0-0.2-0.1-0.4-0.3-0.6c-0.2-0.1-0.4-0.2-0.6-0.2
		c-0.2,0-0.4,0-0.6,0.1c-0.2,0-0.4,0.1-0.6,0.1c-0.2,0.1-0.4,0.1-0.6,0.1c-0.2,0-0.4,0.1-0.6,0.1c-0.3,0-0.5-0.1-0.8-0.2
		c-0.2-0.1-0.5-0.3-0.6-0.5c-0.2-0.2-0.3-0.4-0.4-0.7c-0.1-0.3-0.1-0.5-0.1-0.8c0-0.2,0.1-0.4,0.3-0.6c0.2-0.2,0.4-0.3,0.7-0.5
		c0.3-0.1,0.6-0.2,0.8-0.3c0.3-0.1,0.6-0.1,0.8-0.1c0.2,0,0.4,0,0.6,0c0.2,0,0.5,0,0.7-0.1c0.2,0,0.4,0,0.6-0.1c0.2,0,0.4,0,0.5,0
		c0.1,0,0.2,0,0.3,0c0.1,0,0.2-0.1,0.4-0.1c0.1-0.1,0.2-0.2,0.4-0.3c0.1-0.2,0.2-0.4,0.3-0.7c0.1-0.5,0.2-1,0.4-1.6
		c0.2-0.6,0.3-1.2,0.5-1.8c0.2-0.6,0.3-1.2,0.5-1.7c0.1-0.6,0.3-1.1,0.4-1.5c0.1-0.4,0.3-0.9,0.4-1.4c0.1-0.5,0.2-1,0.3-1.5
		c0.1-0.5,0.2-1,0.3-1.4c0.1-0.5,0.2-0.9,0.4-1.3c0.3-0.8,0.9-1.2,1.6-1.2c1.1,0,1.7,0.6,1.7,1.9c0,0.8-0.2,1.7-0.5,2.7
		c-0.7,2.3-1.3,4.2-1.6,5.7c-0.4,1.5-0.5,2.5-0.5,3c0,0.6,0.3,0.8,0.8,0.8c0.7,0,1.3,0,1.9,0c0.6,0,1.2-0.1,1.8-0.1
		c0.6-0.1,1.3-0.1,2-0.2c0.7-0.1,1.5-0.2,2.3-0.3c0.6-0.1,1.2-0.2,1.8-0.3c0.6-0.1,1.1-0.2,1.5-0.3c0.5-0.1,0.9-0.2,1.3-0.3
		s0.7-0.2,0.9-0.2c0.2,0,0.3,0,0.5-0.1c0.2,0,0.3,0,0.4,0c0.1,0,0.2,0.1,0.3,0.2C258.5,66.4,258.6,66.6,258.6,66.8z"/>
	<path fill="#383634" d="M284,68.7c0,0.5-0.1,1.1-0.4,1.7c-0.3,0.6-0.6,1.1-1,1.6c-1,1.3-2,2.5-3,3.6c-1,1.1-2.1,2.1-3.2,3.1
		c-1.1,1-2.2,1.8-3.3,2.4c-1.1,0.6-2.1,0.8-3,0.8c-0.4,0-0.8-0.1-1.1-0.3s-0.7-0.4-1.1-0.7c-0.3-0.3-0.6-0.6-0.9-1
		c-0.3-0.4-0.4-0.8-0.6-1.2c-0.1-0.2-0.1-0.5-0.2-0.8c-0.1-0.3-0.1-0.6-0.2-0.8c-0.1-0.3-0.1-0.5-0.2-0.6c-0.1-0.2-0.2-0.3-0.3-0.3
		c-0.1,0-0.2,0.1-0.4,0.3c-0.2,0.2-0.4,0.5-0.7,0.8c-0.3,0.3-0.6,0.7-0.9,1.1c-0.3,0.4-0.6,0.8-0.9,1.1c-0.3,0.4-0.6,0.7-0.8,1
		c-0.2,0.3-0.4,0.5-0.6,0.7c-0.5,0.5-1,1.1-1.7,1.6s-1.3,1.1-2,1.5c-0.7,0.5-1.2,0.8-1.8,1.1c-0.5,0.3-0.9,0.4-1.2,0.4
		c-0.6,0-1.1-0.1-1.7-0.3c-0.5-0.2-1-0.5-1.4-0.8s-0.7-0.8-1-1.4c-0.3-0.5-0.4-1.1-0.4-1.8c0-1.1,0.2-2.4,0.7-3.9
		c0.5-1.5,1-2.9,1.8-4.4c0.7-1.5,1.6-2.9,2.6-4.3c1-1.4,2-2.6,3-3.6c1.2-1.1,2.5-2,3.8-2.5s2.7-0.8,4.1-0.8c0.3,0,0.5,0.1,0.7,0.2
		c0.2,0.1,0.4,0.2,0.5,0.4c0.1,0.2,0.3,0.4,0.4,0.6c0.1,0.2,0.2,0.4,0.3,0.6c0.1,0.1,0.2,0.3,0.4,0.5c0.2,0.2,0.4,0.3,0.6,0.5
		c0.2,0.2,0.4,0.3,0.6,0.5c0.2,0.2,0.2,0.3,0.2,0.5c0,0.3-0.1,0.7-0.2,1.1c-0.1,0.4-0.3,0.8-0.4,1.4c-0.2,0.5-0.3,1.1-0.4,1.7
		c-0.1,0.7-0.2,1.4-0.2,2.2c0,0.6,0,1.2,0.1,1.9c0.1,0.7,0.3,1.4,0.5,2c0.2,0.6,0.5,1.2,0.8,1.6c0.3,0.4,0.7,0.6,1.1,0.6
		c0.5,0,1-0.1,1.6-0.4c0.5-0.3,1.1-0.7,1.8-1.3c1.5-1.2,2.9-2.5,4.3-3.9c1.3-1.4,2.7-2.8,4.1-4.2c0.2-0.2,0.5-0.4,0.7-0.4
		C283.9,67.9,284,68.1,284,68.7z M266.1,66.1c0,0,0-0.1-0.1-0.3c0-0.1-0.1-0.3-0.2-0.4c-0.1-0.1-0.2-0.3-0.3-0.4
		c-0.1-0.1-0.3-0.2-0.4-0.2h0c-0.6,0.1-1.2,0.2-1.8,0.6c-0.6,0.3-1.3,0.8-2,1.4c-0.7,0.7-1.5,1.5-2.3,2.5c-0.8,1-1.6,2.3-2.5,3.7
		c-0.3,0.4-0.5,0.9-0.9,1.5c-0.3,0.5-0.6,1.1-0.9,1.7s-0.5,1.3-0.7,2c-0.2,0.7-0.3,1.5-0.3,2.3c0,0.5,0.2,0.8,0.5,1.1
		c0.3,0.2,0.7,0.4,1.1,0.4c0.4,0,0.9-0.2,1.5-0.6c0.6-0.4,1.3-1,2-1.7c0.7-0.7,1.4-1.5,2.2-2.4c0.7-0.9,1.4-1.8,2.1-2.8
		c0.6-0.9,1.2-1.9,1.7-2.8s0.8-1.8,1-2.5c0-0.2,0.1-0.5,0.2-0.8c0.1-0.3,0.1-0.6,0.2-0.9s0.1-0.6,0.1-0.9S266.1,66.2,266.1,66.1z"/>
	<path fill="#383634" d="M312.1,80.2c0,0.5-0.2,1.1-0.6,1.8s-0.9,1.2-1.6,1.8c-0.7,0.6-1.6,1-2.7,1.4c-1.1,0.4-2.3,0.6-3.6,0.6
		c-1.4,0-2.6-0.2-3.6-0.7c-1.1-0.5-1.9-1.2-2.7-2.3c-0.7-1-1.3-2.3-1.7-3.9c-0.4-1.6-0.6-3.5-0.6-5.6c-0.2,0.2-0.6,0.5-1.1,0.9
		c-0.5,0.5-1,1-1.6,1.7c-0.6,0.6-1.2,1.3-1.8,2.1c-0.6,0.7-1.2,1.4-1.8,2.1c-0.6,0.7-1.1,1.3-1.5,1.9c-0.5,0.6-0.8,1-1,1.4
		c-0.4,0.6-0.7,1.1-0.9,1.5c-0.2,0.4-0.4,0.7-0.6,0.9c-0.2,0.2-0.4,0.4-0.6,0.5s-0.5,0.1-0.9,0.1c-0.3,0-0.6,0-0.9-0.1
		s-0.5-0.2-0.7-0.4c-0.2-0.2-0.4-0.3-0.5-0.5c-0.1-0.2-0.2-0.4-0.2-0.6c0-0.3,0-0.6,0-1c0-0.4,0.1-0.7,0.1-1.1
		c0.1-0.4,0.1-0.7,0.2-1.1c0.1-0.4,0.1-0.7,0.2-1c0.2-0.8,0.3-1.8,0.5-2.8c0.2-1.1,0.3-2.4,0.4-4c0.1-1,0.1-1.9,0.2-2.8
		c0.1-0.9,0.1-1.8,0.1-2.8c0-0.5,0.1-0.9,0.2-1.3c0.1-0.4,0.3-0.8,0.5-1.1c0.2-0.3,0.5-0.6,0.8-0.8c0.3-0.2,0.7-0.3,1.2-0.3
		c0.3,0,0.6,0,0.8,0.1c0.2,0.1,0.4,0.2,0.5,0.4c0.1,0.2,0.2,0.3,0.2,0.5c0,0.2,0.1,0.4,0.1,0.6c0,0.2,0,0.5,0,0.7c0,0.2,0,0.4,0,0.6
		c0,0,0,0.2-0.1,0.5c0,0.3-0.1,0.7-0.2,1.1s-0.2,1-0.3,1.5c-0.1,0.6-0.2,1.1-0.4,1.7c-0.3,1.2-0.4,2.1-0.6,2.8
		c-0.1,0.7-0.2,1.3-0.3,1.8s-0.1,1-0.1,1.4c0,0.4-0.1,1-0.1,1.6c0.3-0.5,0.8-1,1.4-1.7c0.6-0.7,1.2-1.4,1.9-2.1
		c0.7-0.7,1.3-1.4,1.9-2.1s1.1-1.3,1.4-1.7c0.5-0.6,0.9-1.2,1.4-1.7c0.5-0.5,1-0.9,1.5-1.3c0.5-0.4,1-0.7,1.6-0.9
		c0.6-0.2,1.2-0.3,1.8-0.3c0.4,0,0.7,0.1,0.8,0.3c0.1,0.2,0.2,0.5,0.2,0.8c0,0.1,0,0.2,0,0.4c0,0.1,0,0.3,0,0.4c0,0.1,0,0.3-0.1,0.7
		c0,0.3-0.1,0.7-0.1,1c0,0.4-0.1,0.7-0.1,1s-0.1,0.5-0.1,0.7c0,1.3,0.1,2.6,0.3,3.7c0.2,1.1,0.5,2.1,1,2.9c0.4,0.8,1,1.4,1.8,1.9
		c0.7,0.4,1.6,0.7,2.7,0.7c0.7,0,1.3,0,1.8-0.1c0.5-0.1,1-0.2,1.5-0.4c0.5-0.2,1-0.5,1.5-0.8c0.5-0.3,1.1-0.7,1.7-1.1
		c0.2-0.1,0.3-0.2,0.5-0.3c0.1-0.1,0.2-0.2,0.4-0.2c0.1-0.1,0.2-0.1,0.3-0.1L312.1,80.2z"/>
	<path fill="#77FDD5" d="M358.2,56.8c-0.2,0.1-0.5,0.2-0.9,0.2c-0.4,0-0.8,0-1.2,0c-0.4,0-0.8-0.1-1.2-0.1c-0.4,0-0.7-0.1-0.9,0
		c-0.3,0-0.8,0-1.5,0.1s-1.4,0.1-2.3,0.2c-0.9,0.1-1.7,0.2-2.7,0.4c-0.9,0.1-1.8,0.3-2.6,0.5c-0.8,0.2-1.5,0.3-2,0.5
		c-0.6,0.2-0.9,0.3-1.1,0.5c-0.1,0.1-0.2,0.3-0.3,0.7s-0.3,1-0.5,1.6c-0.2,0.7-0.3,1.4-0.5,2.3c-0.2,0.8-0.3,1.7-0.4,2.7
		s-0.2,1.8-0.3,2.8c-0.1,0.9-0.1,1.8,0,2.7c1.1-0.3,2.1-0.6,3.2-0.8c1.1-0.2,2.3-0.5,3.6-0.7c0.6-0.1,1.2-0.3,1.9-0.5
		c0.7-0.2,1.4-0.4,2.1-0.6c0.7-0.2,1.3-0.4,1.9-0.5c0.6-0.2,1.1-0.2,1.6-0.2c0.4,0,0.8,0,1,0.1c0.3,0.1,0.5,0.2,0.7,0.4
		c0.2,0.2,0.3,0.4,0.4,0.6c0.1,0.3,0.2,0.6,0.3,0.9c0,0.1,0,0.2-0.1,0.4s-0.2,0.3-0.4,0.5c-0.1,0.2-0.3,0.3-0.4,0.4
		c-0.1,0.1-0.3,0.3-0.3,0.3c-0.2,0.2-0.5,0.3-0.9,0.5c-0.4,0.1-0.9,0.3-1.4,0.4c-0.5,0.1-1,0.2-1.4,0.3c-0.5,0.1-0.8,0.1-1,0.2
		c-0.8,0.2-1.6,0.3-2.4,0.5c-0.8,0.2-1.7,0.3-2.5,0.5c-0.8,0.2-1.6,0.3-2.3,0.5c-0.7,0.2-1.4,0.3-2,0.5c-0.6,0.2-1.1,0.3-1.4,0.5
		c-0.4,0.2-0.6,0.3-0.6,0.4c-0.1,0.3-0.2,0.6-0.3,1.1c-0.1,0.4-0.1,0.9-0.2,1.4c-0.1,0.5-0.1,1.1-0.1,1.7c0,0.6,0,1.2,0,1.7
		c0,0.6,0,1.1,0,1.6c0,0.5,0,1,0,1.4c0,0.5,0,1,0,1.5c0,0.5,0,1-0.1,1.4c-0.1,0.3-0.3,0.6-0.6,0.8s-0.7,0.3-1.3,0.2
		c-0.1,0-0.3-0.1-0.5-0.2c-0.3-0.1-0.6-0.3-0.9-0.5c-0.3-0.2-0.6-0.5-0.8-0.8c-0.2-0.3-0.4-0.7-0.4-1.2c0-1.9,0.1-3.6,0.3-5.2
		c0.2-1.6,0.4-3.3,0.6-4.9c0.2-1.3,0.3-2.7,0.5-4.1c0.2-1.4,0.4-2.8,0.6-4.2c0.2-1.4,0.4-2.8,0.6-4.2c0.2-1.4,0.4-2.8,0.6-4.1
		c0-0.2,0-0.5,0-0.7c0-0.3-0.1-0.5-0.2-0.8c-0.1-0.3-0.2-0.5-0.2-0.8c-0.1-0.3-0.1-0.5-0.2-0.7c0-0.2,0-0.5,0.2-0.7
		c0.1-0.3,0.3-0.5,0.5-0.7c0.2-0.2,0.4-0.4,0.7-0.6c0.2-0.1,0.5-0.2,0.7-0.2c0.3,0,0.6,0.1,0.8,0.1c0.3,0,0.5,0.1,0.7,0.1
		c0.2,0,0.5,0.1,0.7,0.1c0.2,0,0.5,0,0.7,0c0.4,0,1,0,1.5-0.1c0.6-0.1,1.2-0.2,1.8-0.3c0.6-0.1,1.2-0.2,1.9-0.4s1.2-0.2,1.8-0.4
		c1.7-0.3,3.3-0.6,4.7-0.8c1.4-0.2,2.7-0.3,3.9-0.3c0.2,0,0.4,0,0.7,0.1s0.5,0.2,0.8,0.3c0.3,0.1,0.5,0.3,0.7,0.5
		c0.2,0.2,0.3,0.4,0.3,0.5c0,0.4-0.1,0.9-0.2,1.4C359.3,55.9,358.8,56.4,358.2,56.8z"/>
	<path fill="#77FDD5" d="M382,69.2c0,0.2-0.1,0.4-0.3,0.6c-0.2,0.2-0.5,0.3-0.8,0.4c-0.3,0.1-0.7,0.3-1.1,0.4
		c-0.4,0.1-0.8,0.2-1.3,0.4c-1,0.3-2,0.7-3.1,1.3c-1,0.6-2.1,1.4-3.3,2.6c-0.9,0.9-1.6,1.8-2.3,2.8c-0.6,1-1.2,2-1.6,3.1
		s-0.8,2.3-1.2,3.5c-0.3,1.2-0.6,2.5-0.8,3.9c-0.2,0.2-0.3,0.3-0.4,0.5c-0.1,0.1-0.3,0.3-0.4,0.3c-0.1,0.1-0.3,0.2-0.5,0.2
		c-0.2,0.1-0.4,0.1-0.7,0.1c-0.4,0-0.7-0.2-0.9-0.5c-0.2-0.3-0.4-0.7-0.5-1.2c-0.1-0.5-0.2-0.9-0.2-1.4c0-0.5,0-0.8,0-1.1
		c0-0.3,0-0.7,0-1.1c0-0.5,0-0.9,0.1-1.5c0-0.5,0-1.1,0.1-1.7c0-0.6,0.1-1.1,0.1-1.7c0-0.5,0-1,0.1-1.5c0-0.5,0-0.8,0-1.1
		c0-0.7,0-1.3,0-1.7c0-0.5,0-0.8-0.1-1.2c0-0.3-0.1-0.6-0.1-0.9c0-0.3-0.1-0.5-0.1-0.8c0-0.3-0.1-0.7-0.1-1.1c0-0.4,0-0.9,0-1.6
		c0-0.3,0.1-0.6,0.2-0.9c0.1-0.3,0.3-0.6,0.5-0.8c0.2-0.2,0.5-0.4,0.8-0.5c0.3-0.1,0.6-0.2,0.8-0.2c0.3,0,0.6,0.1,0.9,0.2
		s0.5,0.3,0.7,0.5c0.2,0.2,0.4,0.5,0.5,0.7c0.1,0.3,0.2,0.6,0.2,0.9c0,0.6,0,1.3-0.1,2.1c-0.1,0.8-0.2,1.6-0.2,2.5
		c-0.1,0.8-0.2,1.6-0.2,2.4c-0.1,0.8-0.1,1.4-0.1,1.9c0.7-1.3,1.4-2.5,2.3-3.8s1.8-2.5,2.9-3.5s2.2-1.9,3.5-2.6c1.2-0.7,2.6-1,4-1
		c0.3,0,0.6,0,0.9,0.1c0.4,0.1,0.7,0.2,1,0.3c0.3,0.2,0.6,0.3,0.8,0.6C381.9,68.6,382,68.9,382,69.2z"/>
	<path fill="#77FDD5" d="M411.5,71.2c0,0.2-0.2,0.6-0.5,1.2c-0.8,1.1-1.7,2.3-2.7,3.4c-1,1.1-2,2.2-3.1,3.3c-1.1,1-2.3,2-3.5,2.9
		c-1.2,0.9-2.4,1.7-3.6,2.3c-1.2,0.7-2.4,1.2-3.7,1.5c-1.2,0.4-2.4,0.5-3.5,0.5c-2.4,0-4.3-0.7-5.7-2.1c-1.4-1.4-2-3.6-2-6.4
		c0-2.4,0.4-4.7,1.1-7c0.7-2.3,2-4.4,3.8-6.5c0.3-0.4,0.7-0.7,1.1-1.1c0.4-0.3,0.9-0.6,1.3-0.9c0.5-0.3,0.9-0.5,1.4-0.6
		c0.5-0.2,1-0.2,1.5-0.3c0.1,0,0.3,0,0.5,0c0.2,0,0.4,0.1,0.7,0.2c0.2,0.1,0.5,0.2,0.7,0.3c0.2,0.1,0.4,0.3,0.6,0.4
		c0.4,0.5,0.8,1,1,1.5c0.3,0.5,0.4,1.1,0.4,1.7c0,0.7,0,1.4-0.2,2.1c-0.2,0.7-0.5,1.4-1,2.1c-0.5,0.7-1,1.4-1.8,2.2
		c-0.7,0.8-1.6,1.6-2.7,2.4c-0.7,0.6-1.4,1.2-2.2,1.8c-0.8,0.7-1.8,1.4-2.9,2.1c0,1.5,0.4,2.6,1.3,3.4c0.9,0.8,2.1,1.2,3.7,1.2
		c0.9,0,1.8-0.1,2.6-0.3c0.9-0.2,1.8-0.5,2.6-0.9c0.9-0.4,1.7-0.8,2.5-1.3c0.8-0.5,1.6-1,2.3-1.5c1.3-0.9,2.5-1.9,3.5-2.8
		c1.1-0.9,2.1-1.9,3.1-3l1.2-1.2c0.7-0.7,1.3-1,1.6-1C411.4,70.7,411.5,70.9,411.5,71.2z M394,66.6c0-0.2,0-0.5-0.1-0.7
		c-0.1-0.2-0.1-0.4-0.2-0.6c-0.1-0.2-0.2-0.3-0.4-0.4s-0.3-0.1-0.5-0.1c-0.8,0-1.6,0.5-2.4,1.5c-0.8,0.9-1.6,2.2-2.3,3.7
		c-0.2,0.3-0.3,0.7-0.4,1.1s-0.3,0.8-0.4,1.3c-0.1,0.4-0.2,0.9-0.3,1.3c-0.1,0.4-0.2,0.8-0.2,1.1c0.8-0.6,1.5-1.1,2.2-1.7
		c0.7-0.5,1.3-1,1.9-1.6c0.4-0.3,0.7-0.7,1.1-1.1c0.4-0.4,0.7-0.8,1-1.2c0.3-0.4,0.6-0.9,0.7-1.3S394,67.1,394,66.6z"/>
	<path fill="#77FDD5" d="M416.7,64.6c0,0.2-0.1,0.4-0.2,0.6c-0.1,0.3-0.3,0.5-0.4,0.8c-0.2,0.3-0.4,0.6-0.6,0.9
		c-0.2,0.3-0.5,0.6-0.8,0.9c-0.2,0.2-0.4,0.4-0.6,0.6c-0.2,0.2-0.4,0.5-0.6,0.7c-0.2,0.3-0.3,0.5-0.4,0.8c-0.1,0.3-0.2,0.5-0.2,0.8
		c0,0.7,0.1,1.4,0.4,2.1c0.3,0.7,0.7,1.5,1.3,2.4c0.3,0.4,0.6,0.9,1,1.4c0.4,0.5,0.7,1.1,1.1,1.7c0.4,0.6,0.7,1.2,1,1.9
		c0.3,0.7,0.5,1.3,0.7,2c1.4-1.2,2.8-2.5,4.2-3.9c1.4-1.4,2.6-2.8,3.8-4.2c1.2-1.4,2.2-2.8,3.2-4.1c0.9-1.3,1.7-2.5,2.3-3.6
		c0.2-0.4,0.4-0.8,0.6-1.1c0.2-0.3,0.3-0.5,0.4-0.7s0.3-0.3,0.4-0.4c0.1-0.1,0.3-0.1,0.4-0.1c0.3,0,0.5,0.1,0.7,0.3
		c0.1,0.2,0.2,0.5,0.2,0.9c0,0.4-0.1,0.9-0.4,1.7c-0.3,0.8-0.8,1.7-1.4,2.8c-0.6,1.1-1.5,2.4-2.5,3.9c-1,1.4-2.2,3-3.7,4.8
		c-0.8,0.9-1.7,1.9-2.7,2.9s-2.1,2-3.2,3s-2.2,1.9-3.3,2.7c-1.1,0.9-2.2,1.6-3.2,2.3c-1,0.6-1.9,1.2-2.7,1.5
		c-0.8,0.4-1.4,0.6-1.9,0.6c-0.2,0-0.5-0.1-0.7-0.2c-0.2-0.1-0.4-0.3-0.6-0.5c-0.2-0.2-0.3-0.4-0.4-0.7c-0.1-0.2-0.1-0.4-0.1-0.6
		c0-0.3,0.1-0.6,0.2-0.9c0.2-0.3,0.4-0.5,0.6-0.7c0.3-0.2,0.6-0.4,0.9-0.6c0.3-0.2,0.7-0.3,1-0.5c0.2-0.1,0.5-0.2,0.8-0.3
		c0.3-0.1,0.6-0.2,0.9-0.3c0.3-0.1,0.6-0.2,0.9-0.4s0.5-0.3,0.7-0.5c0.3-0.3,0.6-0.7,0.8-1.1c0.2-0.4,0.3-0.8,0.3-1.3
		c0-0.2-0.1-0.6-0.3-0.9c-0.2-0.4-0.4-0.8-0.7-1.2c-0.3-0.4-0.6-0.9-0.9-1.4c-0.3-0.5-0.7-1-1-1.4c-0.3-0.5-0.7-0.9-1-1.3
		c-0.3-0.4-0.5-0.8-0.7-1.1c-0.4-0.6-0.7-1.2-0.9-1.9c-0.3-0.7-0.4-1.4-0.4-2.1c0-0.3,0-0.6,0.1-1c0.1-0.4,0.2-0.8,0.3-1.2
		c0.1-0.4,0.2-0.8,0.4-1.1s0.3-0.7,0.4-0.9c0-0.1,0.1-0.2,0.3-0.5c0.2-0.2,0.4-0.5,0.6-0.8c0.2-0.3,0.5-0.6,0.8-1
		c0.3-0.3,0.6-0.7,0.9-1c0.3-0.3,0.6-0.5,0.9-0.7c0.3-0.2,0.5-0.3,0.8-0.3c0.6,0,1.2,0.1,1.6,0.4C416.5,63.8,416.7,64.2,416.7,64.6z
		"/>
	<path fill="#77FDD5" d="M462.8,71.9c0,0.1,0,0.4,0,0.7c0,0.3-0.1,0.6-0.1,1c-0.1,0.3-0.1,0.7-0.2,1c-0.1,0.3-0.1,0.5-0.2,0.6
		c-0.6,1.1-1.3,2.1-2,3c-0.8,1-1.6,1.8-2.4,2.6c-0.9,0.7-1.8,1.3-2.7,1.8c-0.9,0.4-1.9,0.7-2.8,0.7c-0.9,0-1.7-0.1-2.3-0.3
		c-0.6-0.2-1.2-0.5-1.6-0.9c-0.4-0.4-0.8-0.8-1-1.3c-0.3-0.5-0.5-1-0.6-1.5c-0.1-0.5-0.3-1-0.3-1.5c-0.1-0.5-0.1-0.9-0.2-1.3
		c0-0.3-0.1-0.6-0.1-1c0-0.6,0-1.3,0.1-2.1c0.1-0.8,0.1-1.5,0.1-2.2c0-0.5,0-0.9-0.1-1.2c-0.1-0.3-0.2-0.6-0.4-0.7
		c-0.3,0.3-0.7,0.6-1,1c-0.3,0.4-0.6,0.8-1,1.2c-0.3,0.4-0.7,0.9-1.1,1.4c-0.4,0.5-0.8,1-1.3,1.6c-0.1,0.1-0.3,0.4-0.6,0.9
		s-0.6,1-1,1.7c-0.4,0.7-0.8,1.4-1.2,2.2c-0.5,0.8-0.9,1.6-1.4,2.4c-0.5,0.8-1,1.6-1.5,2.4c-0.5,0.8-1,1.5-1.4,2.1
		c-0.4,0.6-0.9,1.1-1.2,1.4c-0.4,0.4-0.7,0.5-0.9,0.5c-0.3,0-0.5,0-0.7-0.1s-0.3-0.1-0.5-0.1s-0.2-0.1-0.3-0.1
		c-0.1,0-0.2-0.1-0.3-0.1c-0.1-0.4-0.2-0.9-0.3-1.5c-0.1-0.6-0.1-1.2-0.1-1.8c0-0.6,0-1.2-0.1-1.7c0-0.5,0-0.9,0-1.2
		c0-2,0.1-4.2,0.4-6.5c0.3-2.3,0.7-4.6,1.1-7.1c0.4-2.5,0.8-5.1,1.3-7.8c0.4-2.7,0.8-5.6,1.1-8.5c0.1-0.4,0.2-0.8,0.4-1.1
		c0.2-0.3,0.4-0.6,0.6-0.9c0.2-0.2,0.4-0.4,0.6-0.5c0.2-0.1,0.3-0.2,0.4-0.2h0c0.2,0,0.5,0.1,0.7,0.3c0.2,0.2,0.4,0.4,0.6,0.7
		c0.2,0.3,0.3,0.6,0.4,1c0.1,0.4,0.2,0.8,0.2,1.2c0,0.3,0,0.6-0.1,0.8c-0.1,0.5-0.2,0.9-0.3,1.3c-0.1,0.3-0.1,0.7-0.2,1
		c-0.1,0.3-0.1,0.6-0.2,0.9c-0.1,0.3-0.1,0.6-0.2,0.9c-0.1,0.4-0.1,0.8-0.2,1.2c-0.1,0.5-0.2,1-0.3,1.7c0,0.1-0.1,0.4-0.1,0.9
		c-0.1,0.5-0.2,1.1-0.3,1.8c-0.1,0.7-0.3,1.5-0.4,2.4c-0.2,0.9-0.3,1.8-0.5,2.7c-0.2,0.9-0.3,1.8-0.4,2.7c-0.1,0.9-0.3,1.7-0.4,2.4
		c-0.1,0.7-0.2,1.4-0.3,1.8c-0.1,0.5-0.1,0.8-0.1,1c0,0.2,0,0.4,0,0.6c0,0.2,0,0.5-0.1,0.8c0,0.3,0,0.6-0.1,0.9c0,0.3,0,0.6,0,0.9
		c0,0.3,0,0.6,0,0.9c0,0.3,0.1,0.5,0.1,0.7c0.4-0.3,0.8-0.7,1.2-1.2c0.4-0.5,0.9-1.1,1.4-1.7c0.5-0.6,0.9-1.3,1.4-2
		c0.5-0.7,1-1.4,1.4-2.1c0.5-0.7,0.9-1.3,1.4-2c0.5-0.6,0.9-1.2,1.3-1.7c0.2-0.3,0.4-0.7,0.7-1.1c0.3-0.4,0.6-0.8,1-1.2
		c0.3-0.4,0.7-0.8,1.1-1.1c0.4-0.3,0.7-0.6,1-0.9c0.6-0.5,1.2-0.8,1.7-0.9c0.5-0.1,1-0.2,1.4-0.2c0.2,0,0.3,0.1,0.4,0.3
		c0.1,0.2,0.2,0.5,0.4,0.8c0.1,0.3,0.2,0.6,0.3,1c0.1,0.4,0.1,0.7,0.1,0.9c0,0.2,0,0.6-0.1,1c-0.1,0.4-0.1,0.9-0.2,1.5
		c-0.1,0.6-0.1,1.1-0.2,1.7c-0.1,0.6-0.1,1.2-0.1,1.7c0,0.1,0,0.2,0,0.3s0,0.2,0,0.3c0,0.4,0.1,0.9,0.1,1.5c0.1,0.6,0.2,1.2,0.4,1.7
		s0.5,1,1,1.4c0.4,0.4,1,0.6,1.7,0.6c0.7,0,1.5-0.1,2.2-0.4c0.7-0.3,1.4-0.7,2.1-1.2c0.7-0.5,1.4-1.2,2.1-2c0.7-0.8,1.4-1.7,2.2-2.7
		c0.3-0.4,0.6-0.6,0.9-0.9C462.3,72,462.6,71.8,462.8,71.9C462.7,71.8,462.8,71.9,462.8,71.9z"/>
</g>
<path fill="#383634" d="M108.8,40c-1.4-1.7-3.4-2.7-5.7-2.7H83L72.1,12.4c-0.7-1.5-2.5-2.3-4-1.6c-1.5,0.7-2.3,2.5-1.6,4l9.8,22.5
	H40l9.8-22.5c0.7-1.5,0-3.3-1.6-4c-1.5-0.7-3.3,0-4,1.6L33.3,37.3H13.2c-2.2,0-4.3,1-5.7,2.7c-1.4,1.7-1.9,3.9-1.4,6l10.7,46.8
	c0.7,3.3,3.6,5.6,7,5.6h68.4c3.4,0,6.3-2.3,7-5.6L110.1,46C110.6,43.9,110.1,41.7,108.8,40L108.8,40z M92.4,92.3H24
	c-0.5,0-1-0.3-1.1-0.8L12.2,44.7c-0.1-0.4,0.1-0.6,0.2-0.8c0.1-0.2,0.4-0.4,0.9-0.4h17.4l-0.8,1.8c-0.7,1.5,0,3.3,1.6,4
	c0.4,0.2,0.8,0.3,1.2,0.3c1.2,0,2.3-0.7,2.8-1.8l1.9-4.3H79l1.9,4.3c0.5,1.1,1.6,1.8,2.8,1.8c0.4,0,0.8-0.1,1.2-0.3
	c1.5-0.7,2.3-2.5,1.6-4l-0.8-1.8h17.4c0.5,0,0.8,0.3,0.9,0.4c0.1,0.2,0.3,0.4,0.2,0.8L93.4,91.5C93.3,92,92.9,92.3,92.4,92.3
	L92.4,92.3z"/>
<circle fill="none" stroke="#383634" stroke-width="5" stroke-miterlimit="10" cx="78.9" cy="113.4" r="9.6"/>
<circle fill="none" stroke="#383634" stroke-width="5" stroke-miterlimit="10" cx="37" cy="113.4" r="9.6"/>
<g transform="matrix(1.16401 0 0 1.16401 47.4807 25.431)">
	<path fill-rule="evenodd" clip-rule="evenodd" fill="#FF8200" d="M16.6,29.7c2.1,2.1,3.8,5.6,2.9,7.7C16.9,43-3,52.7-4.7,51
		c-1.7-1.7,8.1-21.5,13.6-24.2C11,25.9,14.5,27.6,16.6,29.7z"/>
</g>
<circle fill-rule="evenodd" clip-rule="evenodd" fill="#43B02A" cx="70.5" cy="56.4" r="4"/>
</svg>
